<svg xmlns="http://www.w3.org/2000/svg" viewBox="0 0 90 90"><g transform="translate(12 6)"><path d="M7.2-6C-3.4-6-12 2.6-12 13.2v51.7C-12 75.4-3.4 84 7.2 84h51.7C69.4 84 78 75.4 78 64.8V13.2C78 2.6 69.4-6 58.8-6H7.2z" fill="#fff"/><linearGradient id="a" gradientUnits="userSpaceOnUse" x1="-1230.483" y1="836.578" x2="-1229.483" y2="835.578" gradientTransform="matrix(78.75 0 0 -78.75 96894.125 65880.125)"><stop offset="0" stop-color="#ff8e64"/><stop offset="1" stop-color="#ffe641"/></linearGradient><path d="M13.3 66.9c5.6 3.9 12.3 6.2 19.7 6.2 7.4 0 14.2-2.3 19.7-6.3l-5.6-13H18.9l-5.6 13.1zm-4.6-4l21.6-49.1h5.4l21.6 49.1c6-6.2 9.8-14.6 9.8-23.9C67.1 20.2 51.8 4.9 33 4.9S-1.1 20.2-1.1 39c0 9.3 3.7 17.8 9.8 23.9zM33 78.4C11.3 78.4-6.4 60.7-6.4 39S11.3-.4 33-.4 72.4 17.3 72.4 39 54.7 78.4 33 78.4zM21.2 48.8H45L33.1 21.1 21.2 48.8z" fill="url(#a)"/></g></svg>